<svg width="400" height="400" viewBox="0 0 400 400" fill="none" xmlns="http://www.w3.org/2000/svg">
  <!-- Background -->
  <rect width="400" height="400" fill="#0a0a0f"/>
  
  <!-- Outer hexagon -->
  <path d="M200 80L300 140V260L200 320L100 260V140L200 80Z" stroke="url(#gradient1)" stroke-width="4" fill="none"/>
  
  <!-- Inner P shape with pixels - larger -->
  <rect x="170" y="150" width="15" height="15" fill="#00d9ff"/>
  <rect x="170" y="170" width="15" height="15" fill="#00d9ff"/>
  <rect x="170" y="190" width="15" height="15" fill="#00d9ff"/>
  <rect x="170" y="210" width="15" height="15" fill="#00d9ff"/>
  <rect x="170" y="230" width="15" height="15" fill="#00d9ff"/>
  <rect x="190" y="150" width="15" height="15" fill="#a855f7"/>
  <rect x="210" y="150" width="15" height="15" fill="#a855f7"/>
  <rect x="230" y="170" width="15" height="15" fill="#ff006e"/>
  <rect x="230" y="190" width="15" height="15" fill="#ff006e"/>
  <rect x="210" y="190" width="15" height="15" fill="#a855f7"/>
  <rect x="190" y="190" width="15" height="15" fill="#a855f7"/>
  
  <defs>
    <linearGradient id="gradient1" x1="100" y1="80" x2="300" y2="320">
      <stop offset="0%" stop-color="#00d9ff"/>
      <stop offset="50%" stop-color="#a855f7"/>
      <stop offset="100%" stop-color="#ff006e"/>
    </linearGradient>
  </defs>
</svg>
